<?xml version="1.0" encoding="utf-8"?><svg version="1.1" id="Layer_1" xmlns="http://www.w3.org/2000/svg" xmlns:xlink="http://www.w3.org/1999/xlink" x="0px" y="0px" viewBox="0 0 125 34" enable-background="new 0 0 125 34" xml:space="preserve"><g id="XMLID_62_" transform="translate(0 2590)"><g id="XMLID_63_"><g id="XMLID_64_"><path id="XMLID_65_" fill="#FFFFFF" d="M28.229-2561.398c-1.39,0-2.459,1.069-2.459,2.459s1.069,2.459,2.459,2.459s2.459-1.069,2.459-2.459C30.689-2560.222,29.512-2561.398,28.229-2561.398z M18.392-2561.398c-1.39,0-2.459,1.069-2.459,2.459s1.069,2.459,2.459,2.459c1.39,0,2.459-1.069,2.459-2.459C20.958-2560.222,19.782-2561.398,18.392-2561.398L18.392-2561.398z M37.853-2561.398c-1.39,0-2.459,1.069-2.459,2.459s1.069,2.459,2.459,2.459c1.39,0,2.459-1.069,2.459-2.459C40.312-2560.222,39.243-2561.398,37.853-2561.398L37.853-2561.398z M73.033-2579.576c1.711,0,2.78,0.535,3.956,1.925l0.107,0.107l1.39-1.283l-0.107-0.107c-1.711-1.818-2.994-2.459-5.346-2.459c-4.384,0-7.164,3.208-7.164,8.448s2.78,8.448,7.164,8.448c2.352,0,3.743-0.642,5.346-2.459l0.107-0.107l-1.39-1.283l-0.107,0.107c-1.39,1.497-2.352,1.925-3.956,1.925c-1.818,0-3.208-0.642-4.17-2.032c-0.855-1.069-1.069-2.352-1.069-4.598s0.321-3.315,1.069-4.598C69.932-2578.827,71.322-2579.576,73.033-2579.576L73.033-2579.576z M86.185-2581.394c-1.818,0-3.315,0.535-4.598,1.818c-1.818,1.818-2.032,4.384-2.032,6.63c0,2.245,0.321,4.812,2.032,6.63c1.283,1.283,2.78,1.818,4.598,1.818c1.818,0,3.315-0.535,4.598-1.818c1.818-1.818,2.032-4.384,2.032-6.63c0-2.246-0.321-4.812-2.032-6.63C89.5-2580.859,88.003-2581.394,86.185-2581.394L86.185-2581.394z M89.393-2567.707c-0.855,0.855-1.925,1.39-3.208,1.39c-1.283,0-2.352-0.428-3.208-1.39c-1.283-1.283-1.39-3.422-1.39-5.24c0-1.925,0.107-3.956,1.39-5.24c0.855-0.855,1.925-1.39,3.208-1.39c1.283,0,2.352,0.428,3.208,1.39c1.283,1.283,1.39,3.422,1.39,5.24S90.783-2569.097,89.393-2567.707z M107.464-2571.022c0,2.994-1.711,4.598-4.598,4.598c-2.78,0-4.277-1.711-4.277-4.705v-10.051h-1.925v10.479c0,1.925,0.535,3.422,1.711,4.598c1.069,1.069,2.459,1.497,4.384,1.497c1.818,0,3.422-0.642,4.598-1.925v1.711h2.032v-16.253h-1.925V-2571.022L107.464-2571.022z M118.477-2574.978l5.346-6.202h-2.566l-7.699,8.875v-16.574h-1.925v24.059h1.925v-4.705l3.422-3.956l5.56,8.661H125L118.477-2574.978L118.477-2574.978z M63.088-2564.82h2.246v-2.246h-2.246V-2564.82L63.088-2564.82z M93.349-2564.82h2.246v-2.246h-2.246V-2564.82L93.349-2564.82z M12.083-2581.501c-1.283-0.962-2.459-1.39-3.849-1.39c-1.497,0-2.887,0.428-3.956,1.39v-1.069H0v17.857h4.277v-10.586c0-0.962,0.321-1.604,0.855-2.353c0.535-0.535,1.283-0.855,2.032-0.855c0.642,0,1.39,0.321,1.925,0.642l0.321,0.321l2.994-3.635L12.083-2581.501L12.083-2581.501z M26.732-2567.6l0.321-0.321l-3.208-2.78l-0.321,0.428c-0.962,0.962-2.032,1.497-3.315,1.497c-1.069,0-2.032-0.321-2.673-0.962c-0.535-0.535-0.855-1.39-0.962-2.352H27.16v-3.315c0-2.032-0.642-3.956-2.032-5.346c-1.39-1.497-3.208-2.245-5.24-2.245c-2.459,0-4.384,0.962-5.667,2.887c-1.069,1.711-1.711,3.742-1.711,6.309c0,2.78,0.642,4.919,1.818,6.523c1.39,1.818,3.422,2.673,6.095,2.673C22.883-2564.713,25.021-2565.675,26.732-2567.6L26.732-2567.6z M17.429-2577.758c0.535-0.641,1.283-0.962,2.246-0.962s1.818,0.321,2.352,0.962c0.428,0.535,0.642,1.283,0.855,2.032h-6.202C16.681-2576.582,16.895-2577.224,17.429-2577.758z M36.784-2582.891c-2.459,0-4.384,0.962-5.667,2.887c-1.283,1.711-1.818,3.743-1.818,6.309c0,2.78,0.642,4.919,1.818,6.523c1.39,1.818,3.422,2.673,6.095,2.673c2.566,0,4.812-0.962,6.523-2.887l0.321-0.321l-3.208-2.673l-0.107,0.107c-0.962,0.962-2.032,1.497-3.315,1.497c-1.069,0-2.032-0.321-2.673-0.962c-0.535-0.535-0.855-1.39-0.962-2.352h10.479v-3.315c0-2.032-0.642-3.956-2.032-5.346C40.633-2582.142,38.815-2582.891,36.784-2582.891L36.784-2582.891z M33.576-2575.727c0.107-0.855,0.428-1.497,0.855-2.032c0.535-0.641,1.283-0.962,2.246-0.962c0.962,0,1.818,0.321,2.352,0.962c0.428,0.535,0.642,1.283,0.855,2.032H33.576L33.576-2575.727z M56.459-2581.394c-1.283-0.962-2.673-1.497-3.849-1.497c-1.925,0-3.636,0.855-4.812,2.352c-0.642,0.855-0.962,1.925-1.283,3.315c-0.107,0.535-0.107,1.604-0.107,3.422c0,1.818,0,2.887,0.107,3.422c0.107,1.39,0.535,2.459,1.283,3.315c1.283,1.497,2.887,2.353,4.812,2.353c1.497,0,2.78-0.428,3.849-1.39v1.283h4.277v-24.7h-4.277V-2581.394L56.459-2581.394z M56.138-2570.273c-0.428,0.962-1.283,1.39-2.459,1.39c-1.283,0-2.032-0.428-2.459-1.39c-0.321-0.642-0.428-1.818-0.428-3.422s0.107-2.78,0.428-3.422c0.428-0.962,1.283-1.39,2.459-1.39c1.283,0,2.032,0.428,2.459,1.39c0.321,0.641,0.428,1.818,0.428,3.315C56.459-2572.305,56.352-2571.022,56.138-2570.273L56.138-2570.273z"/></g></g></g></svg>